<?xml version="1.0" encoding="UTF-8" standalone="no"?>
<!-- Created with Inkscape (http://www.inkscape.org/) -->

<svg
   width="112.8596mm"
   height="132.254mm"
   viewBox="0 0 112.8596 132.254"
   version="1.1"
   id="svg5"
   xml:space="preserve"
   xmlns:inkscape="http://www.inkscape.org/namespaces/inkscape"
   xmlns:sodipodi="http://sodipodi.sourceforge.net/DTD/sodipodi-0.dtd"
   xmlns="http://www.w3.org/2000/svg"
   xmlns:svg="http://www.w3.org/2000/svg"><sodipodi:namedview
     id="namedview7"
     pagecolor="#ffffff"
     bordercolor="#666666"
     borderopacity="1.0"
     inkscape:showpageshadow="2"
     inkscape:pageopacity="0.0"
     inkscape:pagecheckerboard="0"
     inkscape:deskcolor="#d1d1d1"
     inkscape:document-units="mm"
     showgrid="false" /><defs
     id="defs2" /><g
     inkscape:label="Layer 1"
     inkscape:groupmode="layer"
     id="layer1"
     transform="translate(-65.038591,-55.523661)"><path
       style="fill: #0074d9; fill-opacity: 0.643137; stroke-width: 0.264583;"
       d="m 69.61072,144.03013 c 0.8706,2.06949 3.32767,6.55925 4.80541,8.78083 5.29993,7.96771 12.28719,14.2491 20.7552,18.65849 2.01115,1.04723 4.56018,2.2383 5.66453,2.64684 l 2.00791,0.74278 -3.63155,1.28869 c -3.55353,1.26099 -3.6498,1.31262 -4.48106,2.4026 -2.41792,3.17047 -1.01263,7.60669 2.78934,8.80569 l 1.33696,0.4216 12.67489,-4.01346 12.67489,-4.01346 0.76905,-1.00222 c 0.42297,-0.55122 0.92008,-1.51126 1.10468,-2.13342 l 0.33572,-1.13115 -4.01248,-12.67181 -4.01249,-12.67181 -1.11425,-0.85059 c -3.16904,-2.41915 -7.6059,-1.01463 -8.80623,2.78763 l -0.42182,1.3362 1.84125,6.07885 c 1.61368,5.32738 1.78787,6.07563 1.40928,6.05299 -0.23761,-0.0142 -1.63027,-0.3898 -3.09481,-0.83468 -21.19225,-6.43723 -34.55914,-27.42024 -31.49111,-49.43399 1.40048,-10.0488 6.45345,-19.753478 13.83766,-26.576508 1.996,-1.84431 6.8236,-5.49473 7.60088,-5.74746 0.1757,-0.0566 0.82101,-0.56425 1.43436,-1.12696 2.60473,-2.38986 2.23285,-6.69907 -0.74453,-8.62754 -2.3343,-1.51194 -4.13366,-1.31409 -7.60144,0.83562 -11.55052,7.16041 -20.24292,18.69484 -24.04499,31.906618 -2.42972,8.44297 -2.82302,18.00245 -1.0991,26.71343 0.43573,2.20176 2.59452,9.191 3.51383,11.37623 z m 72.65294,24.17492 c 0.97997,1.58047 2.37658,2.531 4.10214,2.79193 1.67886,0.25386 2.51998,-0.019 5.22133,-1.6935 11.63128,-7.21016 20.29942,-18.69857 24.10036,-31.94174 3.103,-10.81136 2.93857,-21.80986 -0.48785,-32.63079 -4.06464,-12.836518 -12.2048,-23.436478 -23.57967,-30.705018 -2.83109,-1.80907 -7.35206,-4.09656 -9.80291,-4.96 -0.74661,-0.26304 -1.38523,-0.55368 -1.41914,-0.64589 -0.0344,-0.092 1.50645,-0.70484 3.42306,-1.36143 3.42015,-1.17161 3.50046,-1.21442 4.3342,-2.30768 2.41789,-3.170499 1.01258,-7.606689 -2.78933,-8.805689 l -1.33692,-0.42158 -12.65329,4.00662 -12.65332,4.006639 -0.75745,0.97699 c -0.41659,0.53734 -0.92078,1.50877 -1.12039,2.15873 l -0.36293,1.18174 4.00663,12.65332 4.00663,12.65331 1.11426,0.85059 c 3.16903,2.41915 7.60589,1.01462 8.80623,-2.78763 l 0.42182,-1.3362 -1.83446,-6.05674 c -1.00899,-3.33124 -1.74798,-6.08418 -1.64225,-6.11766 0.2325,-0.0736 5.18756,1.40185 6.58612,1.96164 2.23087,0.89209 6.98465,3.45055 9.06411,4.87825 2.85942,1.9632 4.49788,3.35236 7.06292,5.98831 9.67437,9.941838 14.19818,24.435708 11.97919,38.380418 -1.51725,9.535 -6.64774,19.15592 -13.66539,25.62599 -2.28766,2.10916 -5.33752,4.43722 -7.52163,5.74151 -1.76862,1.05615 -2.95824,2.5991 -3.16803,4.10893 -0.21293,1.53246 -0.0138,2.87199 0.56601,3.80706 z"
       id="path302"
       inkscape:export-filename="reload.svg"
       inkscape:export-xdpi="96"
       inkscape:export-ydpi="96" /></g></svg>
